<svg xmlns="http://www.w3.org/2000/svg" xmlns:xlink="http://www.w3.org/1999/xlink" id="processonSvg1000" viewBox="255.66405963897705 14.69886589050293 507.7933301925659 569.8636341094971" width="507.7933301925659" height="569.8636341094971"><defs id="ProcessOnDefs1001"><marker id="ProcessOnMarker1012" markerUnits="userSpaceOnUse" orient="auto" markerWidth="16.23606797749979" markerHeight="10.550836550532098" viewBox="-1.0 -1.3763819204711736 16.23606797749979 10.550836550532098" refX="-1.0" refY="3.8990363547948754"><path id="ProcessOnPath1013" d="M12.0 3.8990363547948754L0.0 7.798072709589751V0.0Z" stroke="#323232" stroke-width="2.0" fill="#323232" transform="matrix(1.0,0.0,0.0,1.0,0.0,0.0)"/></marker><marker id="ProcessOnMarker1020" markerUnits="userSpaceOnUse" orient="auto" markerWidth="16.23606797749979" markerHeight="10.550836550532098" viewBox="-1.0 -1.3763819204711736 16.23606797749979 10.550836550532098" refX="-1.0" refY="3.8990363547948754"><path id="ProcessOnPath1021" d="M12.0 3.8990363547948754L0.0 7.798072709589751V0.0Z" stroke="#323232" stroke-width="2.0" fill="#323232" transform="matrix(1.0,0.0,0.0,1.0,0.0,0.0)"/></marker><marker id="ProcessOnMarker1024" markerUnits="userSpaceOnUse" orient="auto" markerWidth="16.23606797749979" markerHeight="10.550836550532098" viewBox="-1.0 -1.3763819204711736 16.23606797749979 10.550836550532098" refX="-1.0" refY="3.8990363547948754"><path id="ProcessOnPath1025" d="M12.0 3.8990363547948754L0.0 7.798072709589751V0.0Z" stroke="#323232" stroke-width="2.0" fill="#323232" transform="matrix(1.0,0.0,0.0,1.0,0.0,0.0)"/></marker><marker id="ProcessOnMarker1043" markerUnits="userSpaceOnUse" orient="auto" markerWidth="16.23606797749979" markerHeight="10.550836550532098" viewBox="-1.0 -1.3763819204711736 16.23606797749979 10.550836550532098" refX="-1.0" refY="3.8990363547948754"><path id="ProcessOnPath1044" d="M12.0 3.8990363547948754L0.0 7.798072709589751V0.0Z" stroke="#323232" stroke-width="2.0" fill="#323232" transform="matrix(1.0,0.0,0.0,1.0,0.0,0.0)"/></marker><marker id="ProcessOnMarker1073" markerUnits="userSpaceOnUse" orient="auto" markerWidth="16.23606797749979" markerHeight="10.550836550532098" viewBox="-1.0 -1.3763819204711736 16.23606797749979 10.550836550532098" refX="-1.0" refY="3.8990363547948754"><path id="ProcessOnPath1074" d="M12.0 3.8990363547948754L0.0 7.798072709589751V0.0Z" stroke="#323232" stroke-width="2.0" fill="#323232" transform="matrix(1.0,0.0,0.0,1.0,0.0,0.0)"/></marker><marker id="ProcessOnMarker1086" markerUnits="userSpaceOnUse" orient="auto" markerWidth="16.23606797749979" markerHeight="10.550836550532098" viewBox="-1.0 -1.3763819204711736 16.23606797749979 10.550836550532098" refX="-1.0" refY="3.8990363547948754"><path id="ProcessOnPath1087" d="M12.0 3.8990363547948754L0.0 7.798072709589751V0.0Z" stroke="#323232" stroke-width="2.0" fill="#323232" transform="matrix(1.0,0.0,0.0,1.0,0.0,0.0)"/></marker></defs><g id="ProcessOnG1002"><path id="ProcessOnPath1003" d="M255.66405963897705 14.69886589050293H763.457389831543V584.5625H255.66405963897705V14.69886589050293Z" fill="#ccff99"/><g id="ProcessOnG1004"><g id="ProcessOnG1005" transform="matrix(1.0,0.0,0.0,1.0,406.5482921600342,34.69886589050293)" opacity="1.0"><path id="ProcessOnPath1006" d="M0.0 4.0Q0.0 0.0 4.0 0.0L188.81819534301758 0.0Q192.81819534301758 0.0 192.81819534301758 4.0L192.81819534301758 35.58624334204686Q192.81819534301758 39.58624334204686 188.81819534301758 39.58624334204686L4.0 39.58624334204686Q0.0 39.58624334204686 0.0 35.58624334204686Z" stroke="#323232" stroke-width="2.0" stroke-dasharray="none" opacity="1.0" fill="#ffffff"/><g id="ProcessOnG1007" transform="matrix(1.0,0.0,0.0,1.0,10.0,3.5431216710234317)"><text id="ProcessOnText1008" fill="#000000" font-size="13" x="85.40909767150879" y="13.325" font-family="微软雅黑" font-weight="normal" font-style="normal" text-decoration="none" family="微软雅黑" text-anchor="middle" size="13">Input: conv feature map</text><text id="ProcessOnText1009" fill="#000000" font-size="13" x="85.40909767150879" y="29.575" font-family="微软雅黑" font-weight="normal" font-style="normal" text-decoration="none" family="微软雅黑" text-anchor="middle" size="13">1×C×H×W</text></g></g><g id="ProcessOnG1010"><path id="ProcessOnPath1011" d="M502.95738983154297 74.2851092325498L502.95738983154297 101.90341854095459L502.95738983154297 101.90341854095459L502.95738983154297 114.28565987185961" stroke="#323232" stroke-width="2.0" stroke-dasharray="none" fill="none" marker-end="url(#ProcessOnMarker1012)"/></g><g id="ProcessOnG1014" transform="matrix(1.0,0.0,0.0,1.0,406.5482921600342,129.5217278493594)" opacity="1.0"><path id="ProcessOnPath1015" d="M0.0 4.0Q0.0 0.0 4.0 0.0L188.81819534301758 0.0Q192.81819534301758 0.0 192.81819534301758 4.0L192.81819534301758 35.58624334204686Q192.81819534301758 39.58624334204686 188.81819534301758 39.58624334204686L4.0 39.58624334204686Q0.0 39.58624334204686 0.0 35.58624334204686Z" stroke="#323232" stroke-width="2.0" stroke-dasharray="none" opacity="1.0" fill="#ffffff"/><g id="ProcessOnG1016" transform="matrix(1.0,0.0,0.0,1.0,10.0,11.668121671023432)"><text id="ProcessOnText1017" fill="#000000" font-size="13" x="85.40909767150879" y="13.325" font-family="微软雅黑" font-weight="normal" font-style="normal" text-decoration="none" family="微软雅黑" text-anchor="middle" size="13">feature map 1×256×H×W</text></g></g><g id="ProcessOnG1018"><path id="ProcessOnPath1019" d="M526.8668460540771 168.9405859023327L526.8668460540771 209.4788168922064L626.957389831543 209.4788168922064L626.957389831543 234.78097990458028" stroke="#323232" stroke-width="2.0" stroke-dasharray="none" fill="none" marker-end="url(#ProcessOnMarker1020)"/></g><g id="ProcessOnG1022"><path id="ProcessOnPath1023" d="M477.50538804626467 168.9405859023327L477.50538804626467 209.4788168922064L376.95738983154297 209.4788168922064L376.95738983154297 234.78097990458028" stroke="#323232" stroke-width="2.0" stroke-dasharray="none" fill="none" marker-end="url(#ProcessOnMarker1024)"/></g><g id="ProcessOnG1026" transform="matrix(1.0,0.0,0.0,1.0,314.45738983154297,250.01704788208008)" opacity="1.0"><path id="ProcessOnPath1027" d="M0.0 4.0Q0.0 0.0 4.0 0.0L121.0 0.0Q125.0 0.0 125.0 4.0L125.0 44.36363220214844Q125.0 48.36363220214844 121.0 48.36363220214844L4.0 48.36363220214844Q0.0 48.36363220214844 0.0 44.36363220214844Z" stroke="#323232" stroke-width="2.0" stroke-dasharray="none" opacity="1.0" fill="#ffffff"/><g id="ProcessOnG1028" transform="matrix(1.0,0.0,0.0,1.0,10.0,7.931816101074219)"><text id="ProcessOnText1029" fill="#000000" font-size="13" x="51.5" y="13.325" font-family="微软雅黑" font-weight="normal" font-style="normal" text-decoration="none" family="微软雅黑" text-anchor="middle" size="13">rpn_bbox_pred</text><text id="ProcessOnText1030" fill="#000000" font-size="13" x="51.5" y="29.575" font-family="微软雅黑" font-weight="normal" font-style="normal" text-decoration="none" family="微软雅黑" text-anchor="middle" size="13">1×4k×H×W</text></g></g><g id="ProcessOnG1031" transform="matrix(1.0,0.0,0.0,1.0,564.457389831543,250.01704788208008)" opacity="1.0"><path id="ProcessOnPath1032" d="M0.0 4.0Q0.0 0.0 4.0 0.0L121.0 0.0Q125.0 0.0 125.0 4.0L125.0 44.36363220214844Q125.0 48.36363220214844 121.0 48.36363220214844L4.0 48.36363220214844Q0.0 48.36363220214844 0.0 44.36363220214844Z" stroke="#323232" stroke-width="2.0" stroke-dasharray="none" opacity="1.0" fill="#ffffff"/><g id="ProcessOnG1033" transform="matrix(1.0,0.0,0.0,1.0,10.0,7.931816101074219)"><text id="ProcessOnText1034" fill="#000000" font-size="13" x="51.5" y="13.325" font-family="微软雅黑" font-weight="normal" font-style="normal" text-decoration="none" family="微软雅黑" text-anchor="middle" size="13">rpn_cls_score</text><text id="ProcessOnText1035" fill="#000000" font-size="13" x="51.5" y="29.575" font-family="微软雅黑" font-weight="normal" font-style="normal" text-decoration="none" family="微软雅黑" text-anchor="middle" size="13">1×2k×H×W</text></g></g><g id="ProcessOnG1036" transform="matrix(1.0,0.0,0.0,1.0,539.2755680084229,336.3806800842285)" opacity="1.0"><path id="ProcessOnPath1037" d="M0.0 4.0Q0.0 0.0 4.0 0.0L171.36364364624023 0.0Q175.36364364624023 0.0 175.36364364624023 4.0L175.36364364624023 30.686039907113205Q175.36364364624023 34.686039907113205 171.36364364624023 34.686039907113205L4.0 34.686039907113205Q0.0 34.686039907113205 0.0 30.686039907113205Z" stroke="#323232" stroke-width="2.0" stroke-dasharray="none" opacity="1.0" fill="#ffffff"/><g id="ProcessOnG1038" transform="matrix(1.0,0.0,0.0,1.0,10.0,1.0930199535566025)"><text id="ProcessOnText1039" fill="#000000" font-size="13" x="76.68182182312012" y="13.325" font-family="微软雅黑" font-weight="normal" font-style="normal" text-decoration="none" family="微软雅黑" text-anchor="middle" size="13">rpn_cls_score_reshape</text><text id="ProcessOnText1040" fill="#000000" font-size="13" x="76.68182182312012" y="29.575" font-family="微软雅黑" font-weight="normal" font-style="normal" text-decoration="none" family="微软雅黑" text-anchor="middle" size="13">1×2×kH×W</text></g></g><g id="ProcessOnG1041"><path id="ProcessOnPath1042" d="M626.957389831543 298.3806800842285L626.957389831543 317.3806800842285L626.957389831543 317.3806800842285L626.957389831543 321.14461210672874" stroke="#323232" stroke-width="2.0" stroke-dasharray="none" fill="none" marker-end="url(#ProcessOnMarker1043)"/></g><g id="ProcessOnG1045" transform="matrix(1.0,0.0,0.0,1.0,583.457389831543,296.3806800842285)" opacity="1.0"><path id="ProcessOnPath1046" d="M0.0 0.0L160.0 0.0L160.0 40.0L0.0 40.0Z" stroke="none" stroke-width="0.0" stroke-dasharray="none" opacity="1.0" fill="none"/><g id="ProcessOnG1047" transform="matrix(1.0,0.0,0.0,1.0,0.0,11.875)"><text id="ProcessOnText1048" fill="#cc0066" font-size="13" x="79.0" y="13.325" font-family="微软雅黑" font-weight="bold" font-style="normal" text-decoration="none" family="微软雅黑" text-anchor="middle" size="13">reshape</text></g></g><g id="ProcessOnG1049" transform="matrix(1.0,0.0,0.0,1.0,488.9943199157715,82.28510923254979)" opacity="1.0"><path id="ProcessOnPath1050" d="M0.0 0.0L160.0 0.0L160.0 40.0L0.0 40.0Z" stroke="none" stroke-width="0.0" stroke-dasharray="none" opacity="1.0" fill="none"/><g id="ProcessOnG1051" transform="matrix(1.0,0.0,0.0,1.0,0.0,3.75)"><text id="ProcessOnText1052" fill="#0066cc" font-size="13" x="79.0" y="13.325" font-family="微软雅黑" font-weight="bold" font-style="normal" text-decoration="none" family="微软雅黑" text-anchor="middle" size="13">conv 3*3/p1/s1 256</text><text id="ProcessOnText1053" fill="#0066cc" font-size="13" x="79.0" y="29.575" font-family="微软雅黑" font-weight="bold" font-style="normal" text-decoration="none" family="微软雅黑" text-anchor="middle" size="13">relu</text></g></g><g id="ProcessOnG1054" transform="matrix(1.0,0.0,0.0,1.0,334.9943199157715,176.19886362552643)" opacity="1.0"><path id="ProcessOnPath1055" d="M0.0 0.0L160.0 0.0L160.0 40.0L0.0 40.0Z" stroke="none" stroke-width="0.0" stroke-dasharray="none" opacity="1.0" fill="none"/><g id="ProcessOnG1056" transform="matrix(1.0,0.0,0.0,1.0,0.0,11.875)"><text id="ProcessOnText1057" fill="#0066cc" font-size="13" x="79.0" y="13.325" font-family="微软雅黑" font-weight="bold" font-style="normal" text-decoration="none" family="微软雅黑" text-anchor="middle" size="13">conv 1*1/p0/s1 4k</text></g></g><g id="ProcessOnG1058" transform="matrix(1.0,0.0,0.0,1.0,508.45738983154297,176.19886362552643)" opacity="1.0"><path id="ProcessOnPath1059" d="M0.0 0.0L160.0 0.0L160.0 40.0L0.0 40.0Z" stroke="none" stroke-width="0.0" stroke-dasharray="none" opacity="1.0" fill="none"/><g id="ProcessOnG1060" transform="matrix(1.0,0.0,0.0,1.0,0.0,11.875)"><text id="ProcessOnText1061" fill="#0066cc" font-size="13" x="79.0" y="13.325" font-family="微软雅黑" font-weight="bold" font-style="normal" text-decoration="none" family="微软雅黑" text-anchor="middle" size="13">conv 1*1/p0/s1 2k</text></g></g><g id="ProcessOnG1062" transform="matrix(1.0,0.0,0.0,1.0,583.457389831543,433.4219007667149)" opacity="1.0"><path id="ProcessOnPath1063" d="M0.0 0.0L160.0 0.0L160.0 40.0L0.0 40.0Z" stroke="none" stroke-width="0.0" stroke-dasharray="none" opacity="1.0" fill="none"/><g id="ProcessOnG1064" transform="matrix(1.0,0.0,0.0,1.0,0.0,11.875)"><text id="ProcessOnText1065" fill="#cc0066" font-size="13" x="79.0" y="13.325" font-family="微软雅黑" font-weight="bold" font-style="normal" text-decoration="none" family="微软雅黑" text-anchor="middle" size="13">reshape</text></g></g><g id="ProcessOnG1066" transform="matrix(1.0,0.0,0.0,1.0,539.2755680084229,405.3942444567037)" opacity="1.0"><path id="ProcessOnPath1067" d="M0.0 4.0Q0.0 0.0 4.0 0.0L171.36364364624023 0.0Q175.36364364624023 0.0 175.36364364624023 4.0L175.36364364624023 30.686039907113205Q175.36364364624023 34.686039907113205 171.36364364624023 34.686039907113205L4.0 34.686039907113205Q0.0 34.686039907113205 0.0 30.686039907113205Z" stroke="#323232" stroke-width="2.0" stroke-dasharray="none" opacity="1.0" fill="#ffffff"/><g id="ProcessOnG1068" transform="matrix(1.0,0.0,0.0,1.0,10.0,1.0930199535566025)"><text id="ProcessOnText1069" fill="#000000" font-size="13" x="76.68182182312012" y="13.325" font-family="微软雅黑" font-weight="normal" font-style="normal" text-decoration="none" family="微软雅黑" text-anchor="middle" size="13">rpn_cls_prob</text><text id="ProcessOnText1070" fill="#000000" font-size="13" x="76.68182182312012" y="29.575" font-family="微软雅黑" font-weight="normal" font-style="normal" text-decoration="none" family="微软雅黑" text-anchor="middle" size="13">1×2×kH×W</text></g></g><g id="ProcessOnG1071"><path id="ProcessOnPath1072" d="M626.957389831543 371.0667199913417L626.957389831543 388.2304822240227L626.957389831543 388.2304822240227L626.957389831543 390.1581764792039" stroke="#323232" stroke-width="2.0" stroke-dasharray="none" fill="none" marker-end="url(#ProcessOnMarker1073)"/></g><g id="ProcessOnG1075" transform="matrix(1.0,0.0,0.0,1.0,583.457389831543,365.3942444567037)" opacity="1.0"><path id="ProcessOnPath1076" d="M0.0 0.0L160.0 0.0L160.0 40.0L0.0 40.0Z" stroke="none" stroke-width="0.0" stroke-dasharray="none" opacity="1.0" fill="none"/><g id="ProcessOnG1077" transform="matrix(1.0,0.0,0.0,1.0,0.0,11.875)"><text id="ProcessOnText1078" fill="#663300" font-size="13" x="79.0" y="13.325" font-family="微软雅黑" font-weight="bold" font-style="normal" text-decoration="none" family="微软雅黑" text-anchor="middle" size="13">softmax</text></g></g><g id="ProcessOnG1079" transform="matrix(1.0,0.0,0.0,1.0,539.2755680084229,473.4219007667149)" opacity="1.0"><path id="ProcessOnPath1080" d="M0.0 4.0Q0.0 0.0 4.0 0.0L171.36364364624023 0.0Q175.36364364624023 0.0 175.36364364624023 4.0L175.36364364624023 30.686039907113205Q175.36364364624023 34.686039907113205 171.36364364624023 34.686039907113205L4.0 34.686039907113205Q0.0 34.686039907113205 0.0 30.686039907113205Z" stroke="#323232" stroke-width="2.0" stroke-dasharray="none" opacity="1.0" fill="#ffffff"/><g id="ProcessOnG1081" transform="matrix(1.0,0.0,0.0,1.0,10.0,1.0930199535566025)"><text id="ProcessOnText1082" fill="#000000" font-size="13" x="76.68182182312012" y="13.325" font-family="微软雅黑" font-weight="normal" font-style="normal" text-decoration="none" family="微软雅黑" text-anchor="middle" size="13">rpn_cls_prob_reshape</text><text id="ProcessOnText1083" fill="#000000" font-size="13" x="76.68182182312012" y="29.575" font-family="微软雅黑" font-weight="normal" font-style="normal" text-decoration="none" family="微软雅黑" text-anchor="middle" size="13">1×2k×H×W</text></g></g><g id="ProcessOnG1084"><path id="ProcessOnPath1085" d="M626.957389831543 440.0802843638169L626.957389831543 456.7510925652659L626.957389831543 456.7510925652659L626.957389831543 458.1858327892151" stroke="#323232" stroke-width="2.0" stroke-dasharray="none" fill="none" marker-end="url(#ProcessOnMarker1086)"/></g><g id="ProcessOnG1088" transform="matrix(1.0,0.0,0.0,1.0,275.66405963897705,527.4715728759766)" opacity="1.0"><path id="ProcessOnPath1089" d="M0.0 0.0L454.58666038513184 0.0L454.58666038513184 37.09092712402344L0.0 37.09092712402344Z" stroke="none" stroke-width="0.0" stroke-dasharray="none" opacity="1.0" fill="none"/><g id="ProcessOnG1090" transform="matrix(1.0,0.0,0.0,1.0,0.0,9.170463562011719)"><text id="ProcessOnText1091" fill="#000000" font-size="15" x="226.29333019256592" y="15.375" font-family="微软雅黑" font-weight="bold" font-style="normal" text-decoration="none" family="微软雅黑" text-anchor="middle" size="15">Region proposal network flowing in Faster R-CNN (test time) </text></g></g></g></g></svg>