<svg xmlns="http://www.w3.org/2000/svg" xmlns:xlink="http://www.w3.org/1999/xlink" id="processonSvg1000" viewBox="197.40625 1.0 752.7048611111098 677.9999999999999" width="752.7048611111098" height="677.9999999999999"><defs id="ProcessOnDefs1001"><marker id="ProcessOnMarker1023" markerUnits="userSpaceOnUse" orient="auto" markerWidth="16.23606797749979" markerHeight="10.550836550532098" viewBox="-1.0 -1.3763819204711736 16.23606797749979 10.550836550532098" refX="-1.0" refY="3.8990363547948754"><path id="ProcessOnPath1024" d="M12.0 3.8990363547948754L0.0 7.798072709589751V0.0Z" stroke="#323232" stroke-width="2.0" fill="#323232" transform="matrix(1.0,0.0,0.0,1.0,0.0,0.0)"/></marker><marker id="ProcessOnMarker1027" markerUnits="userSpaceOnUse" orient="auto" markerWidth="16.23606797749979" markerHeight="10.550836550532098" viewBox="-1.0 -1.3763819204711736 16.23606797749979 10.550836550532098" refX="-1.0" refY="3.8990363547948754"><path id="ProcessOnPath1028" d="M12.0 3.8990363547948754L0.0 7.798072709589751V0.0Z" stroke="#323232" stroke-width="2.0" fill="#323232" transform="matrix(1.0,0.0,0.0,1.0,0.0,0.0)"/></marker><marker id="ProcessOnMarker1031" markerUnits="userSpaceOnUse" orient="auto" markerWidth="16.23606797749979" markerHeight="10.550836550532098" viewBox="-1.0 -1.3763819204711736 16.23606797749979 10.550836550532098" refX="-1.0" refY="3.8990363547948754"><path id="ProcessOnPath1032" d="M12.0 3.8990363547948754L0.0 7.798072709589751V0.0Z" stroke="#323232" stroke-width="2.0" fill="#323232" transform="matrix(1.0,0.0,0.0,1.0,0.0,0.0)"/></marker><marker id="ProcessOnMarker1035" markerUnits="userSpaceOnUse" orient="auto" markerWidth="16.23606797749979" markerHeight="10.550836550532098" viewBox="-1.0 -1.3763819204711736 16.23606797749979 10.550836550532098" refX="-1.0" refY="3.8990363547948754"><path id="ProcessOnPath1036" d="M12.0 3.8990363547948754L0.0 7.798072709589751V0.0Z" stroke="#323232" stroke-width="2.0" fill="#323232" transform="matrix(1.0,0.0,0.0,1.0,0.0,0.0)"/></marker><marker id="ProcessOnMarker1079" markerUnits="userSpaceOnUse" orient="auto" markerWidth="16.23606797749979" markerHeight="10.550836550532098" viewBox="-1.0 -1.3763819204711736 16.23606797749979 10.550836550532098" refX="-1.0" refY="3.8990363547948754"><path id="ProcessOnPath1080" d="M12.0 3.8990363547948754L0.0 7.798072709589751V0.0Z" stroke="#323232" stroke-width="2.0" fill="#323232" transform="matrix(1.0,0.0,0.0,1.0,0.0,0.0)"/></marker><marker id="ProcessOnMarker1083" markerUnits="userSpaceOnUse" orient="auto" markerWidth="16.23606797749979" markerHeight="10.550836550532098" viewBox="-1.0 -1.3763819204711736 16.23606797749979 10.550836550532098" refX="-1.0" refY="3.8990363547948754"><path id="ProcessOnPath1084" d="M12.0 3.8990363547948754L0.0 7.798072709589751V0.0Z" stroke="#323232" stroke-width="2.0" fill="#323232" transform="matrix(1.0,0.0,0.0,1.0,0.0,0.0)"/></marker><marker id="ProcessOnMarker1087" markerUnits="userSpaceOnUse" orient="auto" markerWidth="16.23606797749979" markerHeight="10.550836550532098" viewBox="-1.0 -1.3763819204711736 16.23606797749979 10.550836550532098" refX="-1.0" refY="3.8990363547948754"><path id="ProcessOnPath1088" d="M12.0 3.8990363547948754L0.0 7.798072709589751V0.0Z" stroke="#323232" stroke-width="2.0" fill="#323232" transform="matrix(1.0,0.0,0.0,1.0,0.0,0.0)"/></marker><marker id="ProcessOnMarker1091" markerUnits="userSpaceOnUse" orient="auto" markerWidth="16.23606797749979" markerHeight="10.550836550532098" viewBox="-1.0 -1.3763819204711736 16.23606797749979 10.550836550532098" refX="-1.0" refY="3.8990363547948754"><path id="ProcessOnPath1092" d="M12.0 3.8990363547948754L0.0 7.798072709589751V0.0Z" stroke="#323232" stroke-width="2.0" fill="#323232" transform="matrix(1.0,0.0,0.0,1.0,0.0,0.0)"/></marker><marker id="ProcessOnMarker1095" markerUnits="userSpaceOnUse" orient="auto" markerWidth="16.23606797749979" markerHeight="10.550836550532098" viewBox="-1.0 -1.3763819204711736 16.23606797749979 10.550836550532098" refX="-1.0" refY="3.8990363547948754"><path id="ProcessOnPath1096" d="M12.0 3.8990363547948754L0.0 7.798072709589751V0.0Z" stroke="#323232" stroke-width="2.0" fill="#323232" transform="matrix(1.0,0.0,0.0,1.0,0.0,0.0)"/></marker><marker id="ProcessOnMarker1099" markerUnits="userSpaceOnUse" orient="auto" markerWidth="16.23606797749979" markerHeight="10.550836550532098" viewBox="-1.0 -1.3763819204711736 16.23606797749979 10.550836550532098" refX="-1.0" refY="3.8990363547948754"><path id="ProcessOnPath1100" d="M12.0 3.8990363547948754L0.0 7.798072709589751V0.0Z" stroke="#323232" stroke-width="2.0" fill="#323232" transform="matrix(1.0,0.0,0.0,1.0,0.0,0.0)"/></marker><marker id="ProcessOnMarker1103" markerUnits="userSpaceOnUse" orient="auto" markerWidth="16.23606797749979" markerHeight="10.550836550532098" viewBox="-1.0 -1.3763819204711736 16.23606797749979 10.550836550532098" refX="-1.0" refY="3.8990363547948754"><path id="ProcessOnPath1104" d="M12.0 3.8990363547948754L0.0 7.798072709589751V0.0Z" stroke="#323232" stroke-width="2.0" fill="#323232" transform="matrix(1.0,0.0,0.0,1.0,0.0,0.0)"/></marker><marker id="ProcessOnMarker1107" markerUnits="userSpaceOnUse" orient="auto" markerWidth="16.23606797749979" markerHeight="10.550836550532098" viewBox="-1.0 -1.3763819204711736 16.23606797749979 10.550836550532098" refX="-1.0" refY="3.8990363547948754"><path id="ProcessOnPath1108" d="M12.0 3.8990363547948754L0.0 7.798072709589751V0.0Z" stroke="#323232" stroke-width="2.0" fill="#323232" transform="matrix(1.0,0.0,0.0,1.0,0.0,0.0)"/></marker><marker id="ProcessOnMarker1111" markerUnits="userSpaceOnUse" orient="auto" markerWidth="16.23606797749979" markerHeight="10.550836550532098" viewBox="-1.0 -1.3763819204711736 16.23606797749979 10.550836550532098" refX="-1.0" refY="3.8990363547948754"><path id="ProcessOnPath1112" d="M12.0 3.8990363547948754L0.0 7.798072709589751V0.0Z" stroke="#323232" stroke-width="2.0" fill="#323232" transform="matrix(1.0,0.0,0.0,1.0,0.0,0.0)"/></marker><marker id="ProcessOnMarker1115" markerUnits="userSpaceOnUse" orient="auto" markerWidth="16.23606797749979" markerHeight="10.550836550532098" viewBox="-1.0 -1.3763819204711736 16.23606797749979 10.550836550532098" refX="-1.0" refY="3.8990363547948754"><path id="ProcessOnPath1116" d="M12.0 3.8990363547948754L0.0 7.798072709589751V0.0Z" stroke="#323232" stroke-width="2.0" fill="#323232" transform="matrix(1.0,0.0,0.0,1.0,0.0,0.0)"/></marker></defs><g id="ProcessOnG1002"><path id="ProcessOnPath1003" d="M197.40625 1.0H950.1111111111098V678.9999999999999H197.40625V1.0Z" fill="none"/><g id="ProcessOnG1004"><g id="ProcessOnG1005" transform="matrix(1.0,0.0,0.0,1.0,442.0,21.0)" opacity="1.0"><path id="ProcessOnPath1006" d="M0.0 4.0Q0.0 0.0 4.0 0.0L133.0 0.0Q137.0 0.0 137.0 4.0L137.0 24.0Q137.0 28.0 133.0 28.0L4.0 28.0Q0.0 28.0 0.0 24.0Z" stroke="#323232" stroke-width="2.0" stroke-dasharray="none" opacity="1.0" fill="#ffffff"/><g id="ProcessOnG1007" transform="matrix(1.0,0.0,0.0,1.0,10.0,5.875)"><text id="ProcessOnText1008" fill="#000000" font-size="13" x="57.5" y="13.325" font-family="微软雅黑" font-weight="normal" font-style="normal" text-decoration="none" family="微软雅黑" text-anchor="middle" size="13">cell</text></g></g><g id="ProcessOnG1009" transform="matrix(1.0,0.0,0.0,1.0,269.0,90.0)" opacity="1.0"><path id="ProcessOnPath1010" d="M0.0 4.0Q0.0 0.0 4.0 0.0L137.0 0.0Q141.0 0.0 141.0 4.0L141.0 23.0Q141.0 27.0 137.0 27.0L4.0 27.0Q0.0 27.0 0.0 23.0Z" stroke="#323232" stroke-width="2.0" stroke-dasharray="none" opacity="1.0" fill="#ffffff"/><g id="ProcessOnG1011" transform="matrix(1.0,0.0,0.0,1.0,10.0,5.375)"><text id="ProcessOnText1012" fill="#000000" font-size="13" x="59.5" y="13.325" font-family="微软雅黑" font-weight="normal" font-style="normal" text-decoration="none" family="微软雅黑" text-anchor="middle" size="13">B pred bboxes</text></g></g><g id="ProcessOnG1013" transform="matrix(1.0,0.0,0.0,1.0,605.0,90.0)" opacity="1.0"><path id="ProcessOnPath1014" d="M0.0 4.0Q0.0 0.0 4.0 0.0L143.0 0.0Q147.0 0.0 147.0 4.0L147.0 23.0Q147.0 27.0 143.0 27.0L4.0 27.0Q0.0 27.0 0.0 23.0Z" stroke="#323232" stroke-width="2.0" stroke-dasharray="none" opacity="1.0" fill="#ffffff"/><g id="ProcessOnG1015" transform="matrix(1.0,0.0,0.0,1.0,10.0,5.375)"><text id="ProcessOnText1016" fill="#000000" font-size="13" x="62.5" y="13.325" font-family="微软雅黑" font-weight="normal" font-style="normal" text-decoration="none" family="微软雅黑" text-anchor="middle" size="13">C class probabilities</text></g></g><g id="ProcessOnG1017" transform="matrix(1.0,0.0,0.0,1.0,409.0,161.0)" opacity="1.0"><path id="ProcessOnPath1018" d="M0.0 22.0C0.0 -7.333333333333333 203.0 -7.333333333333333 203.0 22.0C203.0 51.333333333333336 0.0 51.333333333333336 0.0 22.0Z" stroke="#323232" stroke-width="2.0" stroke-dasharray="none" opacity="1.0" fill="#ffffff"/><g id="ProcessOnG1019" transform="matrix(1.0,0.0,0.0,1.0,10.0,13.875)"><text id="ProcessOnText1020" fill="#000000" font-size="13" x="90.5" y="13.325" font-family="微软雅黑" font-weight="normal" font-style="normal" text-decoration="none" family="微软雅黑" text-anchor="middle" size="13">Is a gt box's center in cell ?</text></g></g><g id="ProcessOnG1021"><path id="ProcessOnPath1022" d="M483.09999999999997 49.0L483.09999999999997 69.5L339.5 69.5L339.5 74.76393202250021" stroke="#323232" stroke-width="2.0" stroke-dasharray="none" fill="none" marker-end="url(#ProcessOnMarker1023)"/></g><g id="ProcessOnG1025"><path id="ProcessOnPath1026" d="M547.49 49.0L547.49 69.5L678.5 69.5L678.5 74.76393202250021" stroke="#323232" stroke-width="2.0" stroke-dasharray="none" fill="none" marker-end="url(#ProcessOnMarker1027)"/></g><g id="ProcessOnG1029"><path id="ProcessOnPath1030" d="M339.5 117.0L339.5 139.8599462339761L474.28374396983463 139.8599462339761L474.28374396983463 147.4838244904524" stroke="#323232" stroke-width="2.0" stroke-dasharray="none" fill="none" marker-end="url(#ProcessOnMarker1031)"/></g><g id="ProcessOnG1033"><path id="ProcessOnPath1034" d="M678.5 117.0L678.5 139.87330266864146L546.993885213404 139.87330266864146L546.993885213404 147.51053735978311" stroke="#323232" stroke-width="2.0" stroke-dasharray="none" fill="none" marker-end="url(#ProcessOnMarker1035)"/></g><g id="ProcessOnG1037" transform="matrix(1.0,0.0,0.0,1.0,304.375,243.0)" opacity="1.0"><path id="ProcessOnPath1038" d="M0.0 16.0L34.0 0.0L68.0 16.0L34.0 32.0Z" stroke="#323232" stroke-width="2.0" stroke-dasharray="none" opacity="1.0" fill="#ffffff"/><g id="ProcessOnG1039" transform="matrix(1.0,0.0,0.0,1.0,10.0,8.035)"><text id="ProcessOnText1040" fill="#000000" font-size="13" x="23.0" y="13.325" font-family="微软雅黑" font-weight="normal" font-style="normal" text-decoration="none" family="微软雅黑" text-anchor="middle" size="13">No</text></g></g><g id="ProcessOnG1041" transform="matrix(1.0,0.0,0.0,1.0,649.8333333333336,243.0)" opacity="1.0"><path id="ProcessOnPath1042" d="M0.0 16.0L33.5833333333332 0.0L67.1666666666664 16.0L33.5833333333332 32.0Z" stroke="#323232" stroke-width="2.0" stroke-dasharray="none" opacity="1.0" fill="#ffffff"/><g id="ProcessOnG1043" transform="matrix(1.0,0.0,0.0,1.0,10.0,8.035)"><text id="ProcessOnText1044" fill="#000000" font-size="13" x="22.5833333333332" y="13.325" font-family="微软雅黑" font-weight="normal" font-style="normal" text-decoration="none" family="微软雅黑" text-anchor="middle" size="13">Yes</text></g></g><g id="ProcessOnG1045" transform="matrix(1.0,0.0,0.0,1.0,217.40625,488.4999999999999)" opacity="1.0"><path id="ProcessOnPath1046" d="M0.0 46.20370370370392C0.0 -15.401234567901307 241.9375 -15.401234567901307 241.9375 46.20370370370392C241.9375 107.80864197530916 0.0 107.80864197530916 0.0 46.20370370370392Z" stroke="#323232" stroke-width="2.0" stroke-dasharray="none" opacity="1.0" fill="#ffffff"/><g id="ProcessOnG1047" transform="matrix(1.0,0.0,0.0,1.0,10.0,38.07870370370392)"><text id="ProcessOnText1048" fill="#000000" font-size="13" x="109.96875" y="13.325" font-family="微软雅黑" font-weight="normal" font-style="normal" text-decoration="none" family="微软雅黑" text-anchor="middle" size="13">计算noobj confidence loss  *注1</text></g></g><g id="ProcessOnG1049" transform="matrix(1.0,0.0,0.0,1.0,728.4513888888878,317.00000000000006)" opacity="1.0"><path id="ProcessOnPath1050" d="M0.0 38.49999999999997C0.0 -12.833333333333323 149.54166666666765 -12.833333333333323 149.54166666666765 38.49999999999997C149.54166666666765 89.83333333333327 0.0 89.83333333333327 0.0 38.49999999999997Z" stroke="#323232" stroke-width="2.0" stroke-dasharray="none" opacity="1.0" fill="#ffffff"/><g id="ProcessOnG1051" transform="matrix(1.0,0.0,0.0,1.0,10.0,22.24999999999997)"><text id="ProcessOnText1052" fill="#000000" font-size="13" x="63.770833333333826" y="13.325" font-family="微软雅黑" font-weight="normal" font-style="normal" text-decoration="none" family="微软雅黑" text-anchor="middle" size="13">计算B个pred bboxes</text><text id="ProcessOnText1053" fill="#000000" font-size="13" x="63.770833333333826" y="29.575" font-family="微软雅黑" font-weight="normal" font-style="normal" text-decoration="none" family="微软雅黑" text-anchor="middle" size="13">与当前gt box的IoU</text></g></g><g id="ProcessOnG1054" transform="matrix(1.0,0.0,0.0,1.0,271.5625,628.9999999999999)" opacity="1.0"><path id="ProcessOnPath1055" d="M0.0 4.0Q0.0 0.0 4.0 0.0L129.625 0.0Q133.625 0.0 133.625 4.0L133.625 26.0Q133.625 30.0 129.625 30.0L4.0 30.0Q0.0 30.0 0.0 26.0Z" stroke="#323232" stroke-width="2.0" stroke-dasharray="none" opacity="1.0" fill="#ffffff"/><g id="ProcessOnG1056" transform="matrix(1.0,0.0,0.0,1.0,10.0,6.875)"><text id="ProcessOnText1057" fill="#000000" font-size="13" x="55.8125" y="13.325" font-family="微软雅黑" font-weight="normal" font-style="normal" text-decoration="none" family="微软雅黑" text-anchor="middle" size="13">返回Loss</text></g></g><g id="ProcessOnG1058" transform="matrix(1.0,0.0,0.0,1.0,514.8333333333336,492.9537037037038)" opacity="1.0"><path id="ProcessOnPath1059" d="M0.0 45.75C0.0 -15.25 135.0 -15.25 135.0 45.75C135.0 106.75 0.0 106.75 0.0 45.75Z" stroke="#323232" stroke-width="2.0" stroke-dasharray="none" opacity="1.0" fill="#ffffff"/><g id="ProcessOnG1060" transform="matrix(1.0,0.0,0.0,1.0,10.0,29.5)"><text id="ProcessOnText1061" fill="#000000" font-size="13" x="56.5" y="13.325" font-family="微软雅黑" font-weight="normal" font-style="normal" text-decoration="none" family="微软雅黑" text-anchor="middle" size="13">计算class probs </text><text id="ProcessOnText1062" fill="#000000" font-size="13" x="56.5" y="29.575" font-family="微软雅黑" font-weight="normal" font-style="normal" text-decoration="none" family="微软雅黑" text-anchor="middle" size="13">loss</text></g></g><g id="ProcessOnG1063" transform="matrix(1.0,0.0,0.0,1.0,616.8541666666669,628.9999999999999)" opacity="1.0"><path id="ProcessOnPath1064" d="M0.0 4.0Q0.0 0.0 4.0 0.0L129.12499999999977 0.0Q133.12499999999977 0.0 133.12499999999977 4.0L133.12499999999977 26.0Q133.12499999999977 30.0 129.12499999999977 30.0L4.0 30.0Q0.0 30.0 0.0 26.0Z" stroke="#323232" stroke-width="2.0" stroke-dasharray="none" opacity="1.0" fill="#ffffff"/><g id="ProcessOnG1065" transform="matrix(1.0,0.0,0.0,1.0,10.0,6.875)"><text id="ProcessOnText1066" fill="#000000" font-size="13" x="55.562499999999886" y="13.325" font-family="微软雅黑" font-weight="normal" font-style="normal" text-decoration="none" family="微软雅黑" text-anchor="middle" size="13">返回Loss</text></g></g><g id="ProcessOnG1067" transform="matrix(1.0,0.0,0.0,1.0,683.7880658436213,420.33333333333263)" opacity="1.0"><path id="ProcessOnPath1068" d="M0.0 4.0Q0.0 0.0 4.0 0.0L234.86831275720056 0.0Q238.86831275720056 0.0 238.86831275720056 4.0L238.86831275720056 44.66666666666737Q238.86831275720056 48.66666666666737 234.86831275720056 48.66666666666737L4.0 48.66666666666737Q0.0 48.66666666666737 0.0 44.66666666666737Z" stroke="#323232" stroke-width="2.0" stroke-dasharray="none" opacity="1.0" fill="#ffffff"/><g id="ProcessOnG1069" transform="matrix(1.0,0.0,0.0,1.0,10.0,16.208333333333684)"><text id="ProcessOnText1070" fill="#000000" font-size="13" x="108.43415637860028" y="13.325" font-family="微软雅黑" font-weight="normal" font-style="normal" text-decoration="none" family="微软雅黑" text-anchor="middle" size="13">取最大IoU的pred box作为best box</text></g></g><g id="ProcessOnG1071" transform="matrix(1.0,0.0,0.0,1.0,676.3333333333334,492.0462962962961)" opacity="1.0"><path id="ProcessOnPath1072" d="M0.0 46.203703703703866C0.0 -15.40123456790129 253.77777777777646 -15.40123456790129 253.77777777777646 46.203703703703866C253.77777777777646 107.80864197530902 0.0 107.80864197530902 0.0 46.203703703703866Z" stroke="#323232" stroke-width="2.0" stroke-dasharray="none" opacity="1.0" fill="#ffffff"/><g id="ProcessOnG1073" transform="matrix(1.0,0.0,0.0,1.0,10.0,21.828703703703866)"><text id="ProcessOnText1074" fill="#000000" font-size="13" x="115.88888888888823" y="13.325" font-family="微软雅黑" font-weight="normal" font-style="normal" text-decoration="none" family="微软雅黑" text-anchor="middle" size="13">只将best box代入, 计算x-y, w-h, obj </text><text id="ProcessOnText1075" fill="#000000" font-size="13" x="115.88888888888823" y="29.575" font-family="微软雅黑" font-weight="normal" font-style="normal" text-decoration="none" family="微软雅黑" text-anchor="middle" size="13">confidence loss, 除best box之外的noo</text><text id="ProcessOnText1076" fill="#000000" font-size="13" x="115.88888888888823" y="45.825" font-family="微软雅黑" font-weight="normal" font-style="normal" text-decoration="none" family="微软雅黑" text-anchor="middle" size="13">bj confidence loss *注2, 注3</text></g></g><g id="ProcessOnG1077"><path id="ProcessOnPath1078" d="M479.6845636881418 203.38587345221882L479.6845636881418 223.1929367261094L338.375 223.1929367261094L338.375 227.7639320225002" stroke="#323232" stroke-width="2.0" stroke-dasharray="none" fill="none" marker-end="url(#ProcessOnMarker1079)"/></g><g id="ProcessOnG1081"><path id="ProcessOnPath1082" d="M552.5188831904879 202.61744989513545L552.5188831904879 222.80872494756773L683.4166666666667 222.80872494756773L683.4166666666667 227.7639320225002" stroke="#323232" stroke-width="2.0" stroke-dasharray="none" fill="none" marker-end="url(#ProcessOnMarker1083)"/></g><g id="ProcessOnG1085"><path id="ProcessOnPath1086" d="M338.375 275.0L338.375 381.74999999999994L338.375 381.74999999999994L338.375 473.2639320225001" stroke="#323232" stroke-width="2.0" stroke-dasharray="none" fill="none" marker-end="url(#ProcessOnMarker1087)"/></g><g id="ProcessOnG1089"><path id="ProcessOnPath1090" d="M683.4166666666667 275.0L683.4166666666667 383.9768518518519L582.3333333333336 383.9768518518519L582.3333333333336 477.71763572620404" stroke="#323232" stroke-width="2.0" stroke-dasharray="none" fill="none" marker-end="url(#ProcessOnMarker1091)"/></g><g id="ProcessOnG1093"><path id="ProcessOnPath1094" d="M803.2222222222216 584.4537037037038L803.2222222222216 606.726851851852L697.9791666666666 606.726851851852L697.9791666666666 613.7639320225002" stroke="#323232" stroke-width="2.0" stroke-dasharray="none" fill="none" marker-end="url(#ProcessOnMarker1095)"/></g><g id="ProcessOnG1097"><path id="ProcessOnPath1098" d="M582.3333333333336 584.4537037037038L582.3333333333336 606.7268518518518L664.316123188406 606.7268518518518L664.316123188406 613.7639320225001" stroke="#323232" stroke-width="2.0" stroke-dasharray="none" fill="none" marker-end="url(#ProcessOnMarker1099)"/></g><g id="ProcessOnG1101"><path id="ProcessOnPath1102" d="M338.375 580.9074074074077L338.375 604.9537037037038L338.375 604.9537037037038L338.375 613.7639320225001" stroke="#323232" stroke-width="2.0" stroke-dasharray="none" fill="none" marker-end="url(#ProcessOnMarker1103)"/></g><g id="ProcessOnG1105"><path id="ProcessOnPath1106" d="M683.4166666666667 275.0L683.4166666666667 296.0L803.2222222222217 296.0L803.2222222222217 301.7639320225003" stroke="#323232" stroke-width="2.0" stroke-dasharray="none" fill="none" marker-end="url(#ProcessOnMarker1107)"/></g><g id="ProcessOnG1109"><path id="ProcessOnPath1110" d="M803.2222222222217 394.0L803.2222222222217 407.1666666666663L803.2222222222215 407.1666666666663L803.2222222222215 408.1666666666663" stroke="#323232" stroke-width="2.0" stroke-dasharray="none" fill="none" marker-end="url(#ProcessOnMarker1111)"/></g><g id="ProcessOnG1113"><path id="ProcessOnPath1114" d="M803.2222222222215 469.0000000000012L803.2222222222215 480.5231481481486L803.2222222222216 480.5231481481486L803.2222222222216 481.5231481481486" stroke="#323232" stroke-width="2.0" stroke-dasharray="none" fill="none" marker-end="url(#ProcessOnMarker1115)"/></g></g></g></svg>