<svg xmlns="http://www.w3.org/2000/svg" xmlns:xlink="http://www.w3.org/1999/xlink" id="processonSvg1000" viewBox="81.0 64.69886589050293 940.7828921644763 855.7979273537128" width="940.7828921644763" height="855.7979273537128"><defs id="ProcessOnDefs1001"><marker id="ProcessOnMarker1012" markerUnits="userSpaceOnUse" orient="auto" markerWidth="16.23606797749979" markerHeight="10.550836550532098" viewBox="-1.0 -1.3763819204711736 16.23606797749979 10.550836550532098" refX="-1.0" refY="3.8990363547948754"><path id="ProcessOnPath1013" d="M12.0 3.8990363547948754L0.0 7.798072709589751V0.0Z" stroke="#323232" stroke-width="2.0" fill="#323232" transform="matrix(1.0,0.0,0.0,1.0,0.0,0.0)"/></marker><marker id="ProcessOnMarker1021" markerUnits="userSpaceOnUse" orient="auto" markerWidth="16.23606797749979" markerHeight="10.550836550532098" viewBox="-1.0 -1.3763819204711736 16.23606797749979 10.550836550532098" refX="-1.0" refY="3.8990363547948754"><path id="ProcessOnPath1022" d="M12.0 3.8990363547948754L0.0 7.798072709589751V0.0Z" stroke="#323232" stroke-width="2.0" fill="#323232" transform="matrix(1.0,0.0,0.0,1.0,0.0,0.0)"/></marker><marker id="ProcessOnMarker1025" markerUnits="userSpaceOnUse" orient="auto" markerWidth="16.23606797749979" markerHeight="10.550836550532098" viewBox="-1.0 -1.3763819204711736 16.23606797749979 10.550836550532098" refX="-1.0" refY="3.8990363547948754"><path id="ProcessOnPath1026" d="M12.0 3.8990363547948754L0.0 7.798072709589751V0.0Z" stroke="#323232" stroke-width="2.0" fill="#323232" transform="matrix(1.0,0.0,0.0,1.0,0.0,0.0)"/></marker><marker id="ProcessOnMarker1044" markerUnits="userSpaceOnUse" orient="auto" markerWidth="16.23606797749979" markerHeight="10.550836550532098" viewBox="-1.0 -1.3763819204711736 16.23606797749979 10.550836550532098" refX="-1.0" refY="3.8990363547948754"><path id="ProcessOnPath1045" d="M12.0 3.8990363547948754L0.0 7.798072709589751V0.0Z" stroke="#323232" stroke-width="2.0" fill="#323232" transform="matrix(1.0,0.0,0.0,1.0,0.0,0.0)"/></marker><marker id="ProcessOnMarker1065" markerUnits="userSpaceOnUse" orient="auto" markerWidth="16.23606797749979" markerHeight="10.550836550532098" viewBox="-1.0 -1.3763819204711736 16.23606797749979 10.550836550532098" refX="-1.0" refY="3.8990363547948754"><path id="ProcessOnPath1066" d="M12.0 3.8990363547948754L0.0 7.798072709589751V0.0Z" stroke="#323232" stroke-width="2.0" fill="#323232" transform="matrix(1.0,0.0,0.0,1.0,0.0,0.0)"/></marker><marker id="ProcessOnMarker1074" markerUnits="userSpaceOnUse" orient="auto" markerWidth="16.23606797749979" markerHeight="10.550836550532098" viewBox="-1.0 -1.3763819204711736 16.23606797749979 10.550836550532098" refX="-1.0" refY="3.8990363547948754"><path id="ProcessOnPath1075" d="M12.0 3.8990363547948754L0.0 7.798072709589751V0.0Z" stroke="#323232" stroke-width="2.0" fill="#323232" transform="matrix(1.0,0.0,0.0,1.0,0.0,0.0)"/></marker><marker id="ProcessOnMarker1087" markerUnits="userSpaceOnUse" orient="auto" markerWidth="16.23606797749979" markerHeight="10.550836550532098" viewBox="-1.0 -1.3763819204711736 16.23606797749979 10.550836550532098" refX="-1.0" refY="3.8990363547948754"><path id="ProcessOnPath1088" d="M12.0 3.8990363547948754L0.0 7.798072709589751V0.0Z" stroke="#323232" stroke-width="2.0" fill="#323232" transform="matrix(1.0,0.0,0.0,1.0,0.0,0.0)"/></marker><marker id="ProcessOnMarker1100" markerUnits="userSpaceOnUse" orient="auto" markerWidth="16.23606797749979" markerHeight="10.550836550532098" viewBox="-1.0 -1.3763819204711736 16.23606797749979 10.550836550532098" refX="-1.0" refY="3.8990363547948754"><path id="ProcessOnPath1101" d="M12.0 3.8990363547948754L0.0 7.798072709589751V0.0Z" stroke="#323232" stroke-width="2.0" fill="#323232" transform="matrix(1.0,0.0,0.0,1.0,0.0,0.0)"/></marker><marker id="ProcessOnMarker1112" markerUnits="userSpaceOnUse" orient="auto" markerWidth="16.23606797749979" markerHeight="10.550836550532098" viewBox="-1.0 -1.3763819204711736 16.23606797749979 10.550836550532098" refX="-1.0" refY="3.8990363547948754"><path id="ProcessOnPath1113" d="M12.0 3.8990363547948754L0.0 7.798072709589751V0.0Z" stroke="#323232" stroke-width="2.0" fill="#323232" transform="matrix(1.0,0.0,0.0,1.0,0.0,0.0)"/></marker><marker id="ProcessOnMarker1121" markerUnits="userSpaceOnUse" orient="auto" markerWidth="16.23606797749979" markerHeight="10.550836550532098" viewBox="-1.0 -1.3763819204711736 16.23606797749979 10.550836550532098" refX="-1.0" refY="3.8990363547948754"><path id="ProcessOnPath1122" d="M12.0 3.8990363547948754L0.0 7.798072709589751V0.0Z" stroke="#323232" stroke-width="2.0" fill="#323232" transform="matrix(1.0,0.0,0.0,1.0,0.0,0.0)"/></marker><marker id="ProcessOnMarker1159" markerUnits="userSpaceOnUse" orient="auto" markerWidth="16.23606797749979" markerHeight="10.550836550532098" viewBox="-1.0 -1.3763819204711736 16.23606797749979 10.550836550532098" refX="-1.0" refY="3.8990363547948754"><path id="ProcessOnPath1160" d="M12.0 3.8990363547948754L0.0 7.798072709589751V0.0Z" stroke="#323232" stroke-width="2.0" fill="#323232" transform="matrix(1.0,0.0,0.0,1.0,0.0,0.0)"/></marker><marker id="ProcessOnMarker1176" markerUnits="userSpaceOnUse" orient="auto" markerWidth="16.23606797749979" markerHeight="10.550836550532098" viewBox="-1.0 -1.3763819204711736 16.23606797749979 10.550836550532098" refX="-1.0" refY="3.8990363547948754"><path id="ProcessOnPath1177" d="M12.0 3.8990363547948754L0.0 7.798072709589751V0.0Z" stroke="#323232" stroke-width="2.0" fill="#323232" transform="matrix(1.0,0.0,0.0,1.0,0.0,0.0)"/></marker><marker id="ProcessOnMarker1189" markerUnits="userSpaceOnUse" orient="auto" markerWidth="16.23606797749979" markerHeight="10.550836550532098" viewBox="-1.0 -1.3763819204711736 16.23606797749979 10.550836550532098" refX="-1.0" refY="3.8990363547948754"><path id="ProcessOnPath1190" d="M12.0 3.8990363547948754L0.0 7.798072709589751V0.0Z" stroke="#323232" stroke-width="2.0" fill="#323232" transform="matrix(1.0,0.0,0.0,1.0,0.0,0.0)"/></marker><marker id="ProcessOnMarker1202" markerUnits="userSpaceOnUse" orient="auto" markerWidth="16.23606797749979" markerHeight="10.550836550532098" viewBox="-1.0 -1.3763819204711736 16.23606797749979 10.550836550532098" refX="-1.0" refY="3.8990363547948754"><path id="ProcessOnPath1203" d="M12.0 3.8990363547948754L0.0 7.798072709589751V0.0Z" stroke="#323232" stroke-width="2.0" fill="#323232" transform="matrix(1.0,0.0,0.0,1.0,0.0,0.0)"/></marker></defs><g id="ProcessOnG1002"><path id="ProcessOnPath1003" d="M81.0 64.69886589050293H1021.7828921644763V920.4967932442157H81.0V64.69886589050293Z" fill="#ccff99"/><g id="ProcessOnG1004"><g id="ProcessOnG1005" transform="matrix(1.0,0.0,0.0,1.0,433.13529600246295,84.69886589050293)" opacity="1.0"><path id="ProcessOnPath1006" d="M0.0 4.0Q0.0 0.0 4.0 0.0L198.52214645424314 0.0Q202.52214645424314 0.0 202.52214645424314 4.0L202.52214645424314 37.785526258188064Q202.52214645424314 41.785526258188064 198.52214645424314 41.785526258188064L4.0 41.785526258188064Q0.0 41.785526258188064 0.0 37.785526258188064Z" stroke="#323232" stroke-width="2.0" stroke-dasharray="none" opacity="1.0" fill="#ffffff"/><g id="ProcessOnG1007" transform="matrix(1.0,0.0,0.0,1.0,10.0,4.642763129094032)"><text id="ProcessOnText1008" fill="#000000" font-size="13" x="90.26107322712157" y="13.325" font-family="微软雅黑" font-weight="normal" font-style="normal" text-decoration="none" family="微软雅黑" text-anchor="middle" size="13">conv4_3</text><text id="ProcessOnText1009" fill="#000000" font-size="13" x="90.26107322712157" y="29.575" font-family="微软雅黑" font-weight="normal" font-style="normal" text-decoration="none" family="微软雅黑" text-anchor="middle" size="13">N×C×H×W</text></g></g><g id="ProcessOnG1010"><path id="ProcessOnPath1011" d="M534.3963692295846 126.48439214869101L534.3963692295846 145.63708488696176L534.3963692295846 145.63708488696176L534.3963692295846 149.5537096477327" stroke="#323232" stroke-width="2.0" stroke-dasharray="none" fill="none" marker-end="url(#ProcessOnMarker1012)"/></g><g id="ProcessOnG1014" transform="matrix(1.0,0.0,0.0,1.0,433.13529600246295,164.7897776252325)" opacity="1.0"><path id="ProcessOnPath1015" d="M0.0 4.0Q0.0 0.0 4.0 0.0L198.52214645424314 0.0Q202.52214645424314 0.0 202.52214645424314 4.0L202.52214645424314 37.785526258188064Q202.52214645424314 41.785526258188064 198.52214645424314 41.785526258188064L4.0 41.785526258188064Q0.0 41.785526258188064 0.0 37.785526258188064Z" stroke="#323232" stroke-width="2.0" stroke-dasharray="none" opacity="1.0" fill="#ffffff"/><g id="ProcessOnG1016" transform="matrix(1.0,0.0,0.0,1.0,10.0,4.642763129094032)"><text id="ProcessOnText1017" fill="#000000" font-size="13" x="90.26107322712157" y="13.325" font-family="微软雅黑" font-weight="normal" font-style="normal" text-decoration="none" family="微软雅黑" text-anchor="middle" size="13">conv4_3_norm</text><text id="ProcessOnText1018" fill="#000000" font-size="13" x="90.26107322712157" y="29.575" font-family="微软雅黑" font-weight="normal" font-style="normal" text-decoration="none" family="微软雅黑" text-anchor="middle" size="13"> N×C×H×W</text></g></g><g id="ProcessOnG1019"><path id="ProcessOnPath1020" d="M463.0 206.0L463.0 237.96853295866302L232.3963692295847 237.96853295866302L232.3963692295847 254.70099793982624" stroke="#323232" stroke-width="2.0" stroke-dasharray="none" fill="none" marker-end="url(#ProcessOnMarker1021)"/></g><g id="ProcessOnG1023"><path id="ProcessOnPath1024" d="M534.3963692295845 206.57530388342056L534.3963692295845 238.9287923286222L534.39260970701 238.9287923286222L534.39260970701 256.046212796324" stroke="#323232" stroke-width="2.0" stroke-dasharray="none" fill="none" marker-end="url(#ProcessOnMarker1025)"/></g><g id="ProcessOnG1027" transform="matrix(1.0,0.0,0.0,1.0,414.06776172966465,271.2822807738238)" opacity="1.0"><path id="ProcessOnPath1028" d="M0.0 4.0Q0.0 0.0 4.0 0.0L236.64969595469086 0.0Q240.64969595469086 0.0 240.64969595469086 4.0L240.64969595469086 39.91935747251955Q240.64969595469086 43.91935747251955 236.64969595469086 43.91935747251955L4.0 43.91935747251955Q0.0 43.91935747251955 0.0 39.91935747251955Z" stroke="#323232" stroke-width="2.0" stroke-dasharray="none" opacity="1.0" fill="#ffffff"/><g id="ProcessOnG1029" transform="matrix(1.0,0.0,0.0,1.0,10.0,5.709678736259775)"><text id="ProcessOnText1030" fill="#000000" font-size="13" x="109.32484797734543" y="13.325" font-family="微软雅黑" font-weight="normal" font-style="normal" text-decoration="none" family="微软雅黑" text-anchor="middle" size="13">conv4_3_norm_mbox_conf</text><text id="ProcessOnText1031" fill="#000000" font-size="13" x="109.32484797734543" y="29.575" font-family="微软雅黑" font-weight="normal" font-style="normal" text-decoration="none" family="微软雅黑" text-anchor="middle" size="13">N×84×H×W</text></g></g><g id="ProcessOnG1032" transform="matrix(1.0,0.0,0.0,1.0,120.67000109451232,269.93706591732604)" opacity="1.0"><path id="ProcessOnPath1033" d="M0.0 4.0Q0.0 0.0 4.0 0.0L219.45273627014467 0.0Q223.45273627014467 0.0 223.45273627014467 4.0L223.45273627014467 42.202426226367095Q223.45273627014467 46.202426226367095 219.45273627014467 46.202426226367095L4.0 46.202426226367095Q0.0 46.202426226367095 0.0 42.202426226367095Z" stroke="#323232" stroke-width="2.0" stroke-dasharray="none" opacity="1.0" fill="#ffffff"/><g id="ProcessOnG1034" transform="matrix(1.0,0.0,0.0,1.0,10.0,6.851213113183547)"><text id="ProcessOnText1035" fill="#000000" font-size="13" x="100.72636813507233" y="13.325" font-family="微软雅黑" font-weight="normal" font-style="normal" text-decoration="none" family="微软雅黑" text-anchor="middle" size="13">conv4_3_norm_mbox_loc</text><text id="ProcessOnText1036" fill="#000000" font-size="13" x="100.72636813507233" y="29.575" font-family="微软雅黑" font-weight="normal" font-style="normal" text-decoration="none" family="微软雅黑" text-anchor="middle" size="13">N×16×H×W</text></g></g><g id="ProcessOnG1037" transform="matrix(1.0,0.0,0.0,1.0,120.67000109451232,360.5248777618294)" opacity="1.0"><path id="ProcessOnPath1038" d="M0.0 4.0Q0.0 0.0 4.0 0.0L219.45273627014467 0.0Q223.45273627014467 0.0 223.45273627014467 4.0L223.45273627014467 37.97966936033504Q223.45273627014467 41.97966936033504 219.45273627014467 41.97966936033504L4.0 41.97966936033504Q0.0 41.97966936033504 0.0 37.97966936033504Z" stroke="#323232" stroke-width="2.0" stroke-dasharray="none" opacity="1.0" fill="#ffffff"/><g id="ProcessOnG1039" transform="matrix(1.0,0.0,0.0,1.0,10.0,4.739834680167519)"><text id="ProcessOnText1040" fill="#000000" font-size="13" x="100.72636813507233" y="13.325" font-family="微软雅黑" font-weight="normal" font-style="normal" text-decoration="none" family="微软雅黑" text-anchor="middle" size="13">conv4_3_norm_mbox_loc_perm</text><text id="ProcessOnText1041" fill="#000000" font-size="13" x="100.72636813507233" y="29.575" font-family="微软雅黑" font-weight="normal" font-style="normal" text-decoration="none" family="微软雅黑" text-anchor="middle" size="13">N×H×W×16</text></g></g><g id="ProcessOnG1042"><path id="ProcessOnPath1043" d="M232.3963692295847 316.13949214369313L232.3963692295847 338.3321849527612L232.39636922958425 338.3321849527612L232.39636922958425 345.2888097843296" stroke="#323232" stroke-width="2.0" stroke-dasharray="none" fill="none" marker-end="url(#ProcessOnMarker1044)"/></g><g id="ProcessOnG1046" transform="matrix(1.0,0.0,0.0,1.0,488.44768846874643,122.56750773502017)" opacity="1.0"><path id="ProcessOnPath1047" d="M0.0 0.0L168.05231153125362 0.0L168.05231153125362 42.22226989021231L0.0 42.22226989021231Z" stroke="none" stroke-width="0.0" stroke-dasharray="none" opacity="1.0" fill="none"/><g id="ProcessOnG1048" transform="matrix(1.0,0.0,0.0,1.0,0.0,12.986134945106155)"><text id="ProcessOnText1049" fill="#cc6600" font-size="13" x="83.02615576562681" y="13.325" font-family="微软雅黑" font-weight="bold" font-style="normal" text-decoration="none" family="微软雅黑" text-anchor="middle" size="13">Normalize</text></g></g><g id="ProcessOnG1050" transform="matrix(1.0,0.0,0.0,1.0,516.4476884687465,231.06001088361154)" opacity="1.0"><path id="ProcessOnPath1051" d="M0.0 0.0L168.05231153125362 0.0L168.05231153125362 42.22226989021231L0.0 42.22226989021231Z" stroke="none" stroke-width="0.0" stroke-dasharray="none" opacity="1.0" fill="none"/><g id="ProcessOnG1052" transform="matrix(1.0,0.0,0.0,1.0,0.0,12.986134945106155)"><text id="ProcessOnText1053" fill="#0066cc" font-size="13" x="83.02615576562681" y="13.325" font-family="微软雅黑" font-weight="bold" font-style="normal" text-decoration="none" family="微软雅黑" text-anchor="middle" size="13">Conv 3*3/p1/s1/f84</text></g></g><g id="ProcessOnG1054" transform="matrix(1.0,0.0,0.0,1.0,211.23058063322242,227.71479602711372)" opacity="1.0"><path id="ProcessOnPath1055" d="M0.0 0.0L168.05231153125362 0.0L168.05231153125362 42.22226989021231L0.0 42.22226989021231Z" stroke="none" stroke-width="0.0" stroke-dasharray="none" opacity="1.0" fill="none"/><g id="ProcessOnG1056" transform="matrix(1.0,0.0,0.0,1.0,0.0,12.986134945106155)"><text id="ProcessOnText1057" fill="#0066cc" font-size="13" x="83.02615576562681" y="13.325" font-family="微软雅黑" font-weight="bold" font-style="normal" text-decoration="none" family="微软雅黑" text-anchor="middle" size="13">Conv 3*3/p1/s1/f16</text></g></g><g id="ProcessOnG1058" transform="matrix(1.0,0.0,0.0,1.0,123.17000109451232,441.2806325306051)" opacity="1.0"><path id="ProcessOnPath1059" d="M0.0 4.0Q0.0 0.0 4.0 0.0L214.45273627014467 0.0Q218.45273627014467 0.0 218.45273627014467 4.0L218.45273627014467 39.85885961308793Q218.45273627014467 43.85885961308793 214.45273627014467 43.85885961308793L4.0 43.85885961308793Q0.0 43.85885961308793 0.0 39.85885961308793Z" stroke="#323232" stroke-width="2.0" stroke-dasharray="none" opacity="1.0" fill="#ffffff"/><g id="ProcessOnG1060" transform="matrix(1.0,0.0,0.0,1.0,10.0,5.679429806543965)"><text id="ProcessOnText1061" fill="#000000" font-size="13" x="98.22636813507233" y="13.325" font-family="微软雅黑" font-weight="normal" font-style="normal" text-decoration="none" family="微软雅黑" text-anchor="middle" size="13">conv4_3_norm_mbox_loc_flat</text><text id="ProcessOnText1062" fill="#000000" font-size="13" x="98.22636813507233" y="29.575" font-family="微软雅黑" font-weight="normal" font-style="normal" text-decoration="none" family="微软雅黑" text-anchor="middle" size="13">N×(H×W×16)</text></g></g><g id="ProcessOnG1063"><path id="ProcessOnPath1064" d="M232.39636922958425 402.5045471221644L232.39636922958425 421.8925898263849L232.3963692295847 421.8925898263849L232.3963692295847 426.0445645531053" stroke="#323232" stroke-width="2.0" stroke-dasharray="none" fill="none" marker-end="url(#ProcessOnMarker1065)"/></g><g id="ProcessOnG1067" transform="matrix(1.0,0.0,0.0,1.0,120.67000109451232,540.2806325306051)" opacity="1.0"><path id="ProcessOnPath1068" d="M0.0 4.0Q0.0 0.0 4.0 0.0L219.45273627014467 0.0Q223.45273627014467 0.0 223.45273627014467 4.0L223.45273627014467 33.204074469585976Q223.45273627014467 37.204074469585976 219.45273627014467 37.204074469585976L4.0 37.204074469585976Q0.0 37.204074469585976 0.0 33.204074469585976Z" stroke="#323232" stroke-width="2.0" stroke-dasharray="none" opacity="1.0" fill="#ffffff"/><g id="ProcessOnG1069" transform="matrix(1.0,0.0,0.0,1.0,10.0,2.352037234792988)"><text id="ProcessOnText1070" fill="#000000" font-size="13" x="100.72636813507233" y="13.325" font-family="微软雅黑" font-weight="normal" font-style="normal" text-decoration="none" family="微软雅黑" text-anchor="middle" size="13">mbox_loc</text><text id="ProcessOnText1071" fill="#000000" font-size="13" x="100.72636813507233" y="29.575" font-family="微软雅黑" font-weight="normal" font-style="normal" text-decoration="none" family="微软雅黑" text-anchor="middle" size="13">N×(?)</text></g></g><g id="ProcessOnG1072"><path id="ProcessOnPath1073" d="M232.3963692295847 485.13949214369313L232.3963692295847 512.7100623371491L232.3963692295847 512.7100623371491L232.3963692295847 525.0445645531053" stroke="#323232" stroke-width="2.0" stroke-dasharray="none" fill="none" marker-end="url(#ProcessOnMarker1074)"/></g><g id="ProcessOnG1076" transform="matrix(1.0,0.0,0.0,1.0,295.66030011640265,818.3452148564979)" opacity="1.0"><path id="ProcessOnPath1077" d="M0.0 0.0L477.46461918121474 0.0L477.46461918121474 82.15157838771779L0.0 82.15157838771779Z" stroke="none" stroke-width="0.0" stroke-dasharray="none" opacity="1.0" fill="none"/><g id="ProcessOnG1078" transform="matrix(1.0,0.0,0.0,1.0,0.0,29.200789193858895)"><text id="ProcessOnText1079" fill="#000000" font-size="19" x="237.73230959060737" y="19.475" font-family="微软雅黑" font-weight="bold" font-style="normal" text-decoration="none" family="微软雅黑" text-anchor="middle" size="19">Deploying flow from Conv4_3  in SSD</text></g></g><g id="ProcessOnG1080" transform="matrix(1.0,0.0,0.0,1.0,414.56776172966465,360.625847387103)" opacity="1.0"><path id="ProcessOnPath1081" d="M0.0 4.0Q0.0 0.0 4.0 0.0L235.64969595469086 0.0Q239.64969595469086 0.0 239.64969595469086 4.0L239.64969595469086 37.77773010978768Q239.64969595469086 41.77773010978768 235.64969595469086 41.77773010978768L4.0 41.77773010978768Q0.0 41.77773010978768 0.0 37.77773010978768Z" stroke="#323232" stroke-width="2.0" stroke-dasharray="none" opacity="1.0" fill="#ffffff"/><g id="ProcessOnG1082" transform="matrix(1.0,0.0,0.0,1.0,10.0,4.6388650548938415)"><text id="ProcessOnText1083" fill="#000000" font-size="13" x="108.82484797734543" y="13.325" font-family="微软雅黑" font-weight="normal" font-style="normal" text-decoration="none" family="微软雅黑" text-anchor="middle" size="13">conv4_3_norm_mbox_conf_perm</text><text id="ProcessOnText1084" fill="#000000" font-size="13" x="108.82484797734543" y="29.575" font-family="微软雅黑" font-weight="normal" font-style="normal" text-decoration="none" family="微软雅黑" text-anchor="middle" size="13">N×H×W×84</text></g></g><g id="ProcessOnG1085"><path id="ProcessOnPath1086" d="M534.39260970701 315.20163824634335L534.39260970701 337.9137428167232L534.39260970701 337.9137428167232L534.39260970701 345.38977940960325" stroke="#323232" stroke-width="2.0" stroke-dasharray="none" fill="none" marker-end="url(#ProcessOnMarker1087)"/></g><g id="ProcessOnG1089" transform="matrix(1.0,0.0,0.0,1.0,508.4476884687465,315.20163824634335)" opacity="1.0"><path id="ProcessOnPath1090" d="M0.0 0.0L168.05231153125362 0.0L168.05231153125362 42.22226989021231L0.0 42.22226989021231Z" stroke="none" stroke-width="0.0" stroke-dasharray="none" opacity="1.0" fill="none"/><g id="ProcessOnG1091" transform="matrix(1.0,0.0,0.0,1.0,0.0,12.986134945106155)"><text id="ProcessOnText1092" fill="#cc0066" font-size="13" x="83.02615576562681" y="13.325" font-family="微软雅黑" font-weight="bold" font-style="normal" text-decoration="none" family="微软雅黑" text-anchor="middle" size="13">Permute: 0,2,3,1</text></g></g><g id="ProcessOnG1093" transform="matrix(1.0,0.0,0.0,1.0,414.56776172966465,444.625847387103)" opacity="1.0"><path id="ProcessOnPath1094" d="M0.0 4.0Q0.0 0.0 4.0 0.0L235.64969595469086 0.0Q239.64969595469086 0.0 239.64969595469086 4.0L239.64969595469086 37.434163496508404Q239.64969595469086 41.434163496508404 235.64969595469086 41.434163496508404L4.0 41.434163496508404Q0.0 41.434163496508404 0.0 37.434163496508404Z" stroke="#323232" stroke-width="2.0" stroke-dasharray="none" opacity="1.0" fill="#ffffff"/><g id="ProcessOnG1095" transform="matrix(1.0,0.0,0.0,1.0,10.0,4.467081748254202)"><text id="ProcessOnText1096" fill="#000000" font-size="13" x="108.82484797734543" y="13.325" font-family="微软雅黑" font-weight="normal" font-style="normal" text-decoration="none" family="微软雅黑" text-anchor="middle" size="13">conv4_3_norm_mbox_conf_flat</text><text id="ProcessOnText1097" fill="#000000" font-size="13" x="108.82484797734543" y="29.575" font-family="微软雅黑" font-weight="normal" font-style="normal" text-decoration="none" family="微软雅黑" text-anchor="middle" size="13">N×(H×W×84)</text></g></g><g id="ProcessOnG1098"><path id="ProcessOnPath1099" d="M534.39260970701 402.40357749689065L534.39260970701 423.51471244199683L534.39260970701 423.51471244199683L534.39260970701 429.38977940960325" stroke="#323232" stroke-width="2.0" stroke-dasharray="none" fill="none" marker-end="url(#ProcessOnMarker1100)"/></g><g id="ProcessOnG1102" transform="matrix(1.0,0.0,0.0,1.0,205.1731674384714,315.20163824634346)" opacity="1.0"><path id="ProcessOnPath1103" d="M0.0 0.0L168.05231153125362 0.0L168.05231153125362 42.22226989021231L0.0 42.22226989021231Z" stroke="none" stroke-width="0.0" stroke-dasharray="none" opacity="1.0" fill="none"/><g id="ProcessOnG1104" transform="matrix(1.0,0.0,0.0,1.0,0.0,12.986134945106155)"><text id="ProcessOnText1105" fill="#cc0066" font-size="13" x="83.02615576562681" y="13.325" font-family="微软雅黑" font-weight="bold" font-style="normal" text-decoration="none" family="微软雅黑" text-anchor="middle" size="13">Permute: 0,2,3,1</text></g></g><g id="ProcessOnG1106" transform="matrix(1.0,0.0,0.0,1.0,202.1731674384714,399.0583626403929)" opacity="1.0"><path id="ProcessOnPath1107" d="M0.0 0.0L168.05231153125362 0.0L168.05231153125362 42.22226989021231L0.0 42.22226989021231Z" stroke="none" stroke-width="0.0" stroke-dasharray="none" opacity="1.0" fill="none"/><g id="ProcessOnG1108" transform="matrix(1.0,0.0,0.0,1.0,0.0,12.986134945106155)"><text id="ProcessOnText1109" fill="#663300" font-size="13" x="83.02615576562681" y="13.325" font-family="微软雅黑" font-weight="bold" font-style="normal" text-decoration="none" family="微软雅黑" text-anchor="middle" size="13">Flatten: axis=1</text></g></g><g id="ProcessOnG1110"><path id="ProcessOnPath1111" d="M534.39260970701 486.0600108836113L534.39260970701 514.8429291353573L534.39260970701 514.8429291353573L534.39260970701 528.3897794096032" stroke="#323232" stroke-width="2.0" stroke-dasharray="none" fill="none" marker-end="url(#ProcessOnMarker1112)"/></g><g id="ProcessOnG1114" transform="matrix(1.0,0.0,0.0,1.0,714.4171889103593,271.2822807738239)" opacity="1.0"><path id="ProcessOnPath1115" d="M0.0 4.0Q0.0 0.0 4.0 0.0L243.29991892516455 0.0Q247.29991892516455 0.0 247.29991892516455 4.0L247.29991892516455 39.91935747251955Q247.29991892516455 43.91935747251955 243.29991892516455 43.91935747251955L4.0 43.91935747251955Q0.0 43.91935747251955 0.0 39.91935747251955Z" stroke="#323232" stroke-width="2.0" stroke-dasharray="none" opacity="1.0" fill="#ffffff"/><g id="ProcessOnG1116" transform="matrix(1.0,0.0,0.0,1.0,10.0,5.709678736259775)"><text id="ProcessOnText1117" fill="#000000" font-size="13" x="112.64995946258227" y="13.325" font-family="微软雅黑" font-weight="normal" font-style="normal" text-decoration="none" family="微软雅黑" text-anchor="middle" size="13">conv4_3_norm_mbox_priorbox</text><text id="ProcessOnText1118" fill="#000000" font-size="13" x="112.64995946258227" y="29.575" font-family="微软雅黑" font-weight="normal" font-style="normal" text-decoration="none" family="微软雅黑" text-anchor="middle" size="13">N×2×(H×W×4×4)</text></g></g><g id="ProcessOnG1119"><path id="ProcessOnPath1120" d="M603.0 206.0L603.0 238.64114038691196L838.0671483729416 238.64114038691196L838.0671483729416 256.04621279632414" stroke="#323232" stroke-width="2.0" stroke-dasharray="none" fill="none" marker-end="url(#ProcessOnMarker1121)"/></g><g id="ProcessOnG1123" transform="matrix(1.0,0.0,0.0,1.0,792.8457866557156,231.06001088361165)" opacity="1.0"><path id="ProcessOnPath1124" d="M0.0 0.0L168.05231153125362 0.0L168.05231153125362 42.22226989021231L0.0 42.22226989021231Z" stroke="none" stroke-width="0.0" stroke-dasharray="none" opacity="1.0" fill="none"/><g id="ProcessOnG1125" transform="matrix(1.0,0.0,0.0,1.0,0.0,12.986134945106155)"><text id="ProcessOnText1126" fill="#6666ff" font-size="13" x="83.02615576562681" y="13.325" font-family="微软雅黑" font-weight="bold" font-style="normal" text-decoration="none" family="微软雅黑" text-anchor="middle" size="13">PriorBox</text></g></g><g id="ProcessOnG1127" transform="matrix(1.0,0.0,0.0,1.0,687.5000000000001,199.817657383516)" opacity="1.0"><path id="ProcessOnPath1128" d="M0.0 0.0L168.05231153125362 0.0L168.05231153125362 42.22226989021231L0.0 42.22226989021231Z" stroke="none" stroke-width="0.0" stroke-dasharray="none" opacity="1.0" fill="none"/><g id="ProcessOnG1129" transform="matrix(1.0,0.0,0.0,1.0,0.0,12.986134945106155)"><text id="ProcessOnText1130" fill="#ff3333" font-size="13" x="83.02615576562681" y="13.325" font-family="微软雅黑" font-weight="bold" font-style="normal" text-decoration="none" family="微软雅黑" text-anchor="middle" size="13">Another input: data</text></g></g><g id="ProcessOnG1131" transform="matrix(1.0,0.0,0.0,1.0,414.06776172966465,543.625847387103)" opacity="1.0"><path id="ProcessOnPath1132" d="M0.0 4.0Q0.0 0.0 4.0 0.0L236.64969595469086 0.0Q240.64969595469086 0.0 240.64969595469086 4.0L240.64969595469086 33.204074469585976Q240.64969595469086 37.204074469585976 236.64969595469086 37.204074469585976L4.0 37.204074469585976Q0.0 37.204074469585976 0.0 33.204074469585976Z" stroke="#323232" stroke-width="2.0" stroke-dasharray="none" opacity="1.0" fill="#ffffff"/><g id="ProcessOnG1133" transform="matrix(1.0,0.0,0.0,1.0,10.0,2.352037234792988)"><text id="ProcessOnText1134" fill="#000000" font-size="13" x="109.32484797734543" y="13.325" font-family="微软雅黑" font-weight="normal" font-style="normal" text-decoration="none" family="微软雅黑" text-anchor="middle" size="13">mbox_conf</text><text id="ProcessOnText1135" fill="#000000" font-size="13" x="109.32484797734543" y="29.575" font-family="微软雅黑" font-weight="normal" font-style="normal" text-decoration="none" family="微软雅黑" text-anchor="middle" size="13">N×(?)</text></g></g><g id="ProcessOnG1136" transform="matrix(1.0,0.0,0.0,1.0,520.4738442343731,492.8100108836113)" opacity="1.0"><path id="ProcessOnPath1137" d="M0.0 0.0L168.05231153125362 0.0L168.05231153125362 42.22226989021231L0.0 42.22226989021231Z" stroke="none" stroke-width="0.0" stroke-dasharray="none" opacity="1.0" fill="none"/><g id="ProcessOnG1138" transform="matrix(1.0,0.0,0.0,1.0,0.0,12.986134945106155)"><text id="ProcessOnText1139" fill="#ff3333" font-size="13" x="83.02615576562681" y="13.325" font-family="微软雅黑" font-weight="bold" font-style="normal" text-decoration="none" family="微软雅黑" text-anchor="middle" size="13">Another 5 conf inputs</text></g></g><g id="ProcessOnG1140" transform="matrix(1.0,0.0,0.0,1.0,512.4738442343732,506.05071614048825)" opacity="1.0"><path id="ProcessOnPath1141" d="M0.0 0.0L168.05231153125362 0.0L168.05231153125362 42.22226989021231L0.0 42.22226989021231Z" stroke="none" stroke-width="0.0" stroke-dasharray="none" opacity="1.0" fill="none"/><g id="ProcessOnG1142" transform="matrix(1.0,0.0,0.0,1.0,0.0,12.986134945106155)"><text id="ProcessOnText1143" fill="#cc00cc" font-size="13" x="83.02615576562681" y="13.325" font-family="微软雅黑" font-weight="bold" font-style="normal" text-decoration="none" family="微软雅黑" text-anchor="middle" size="13">Concat: axis=1</text></g></g><g id="ProcessOnG1144" transform="matrix(1.0,0.0,0.0,1.0,213.73058063322242,492.707149527209)" opacity="1.0"><path id="ProcessOnPath1145" d="M0.0 0.0L168.05231153125362 0.0L168.05231153125362 42.22226989021231L0.0 42.22226989021231Z" stroke="none" stroke-width="0.0" stroke-dasharray="none" opacity="1.0" fill="none"/><g id="ProcessOnG1146" transform="matrix(1.0,0.0,0.0,1.0,0.0,12.986134945106155)"><text id="ProcessOnText1147" fill="#ff3333" font-size="13" x="83.02615576562681" y="13.325" font-family="微软雅黑" font-weight="bold" font-style="normal" text-decoration="none" family="微软雅黑" text-anchor="middle" size="13">Another 5 loc inputs</text></g></g><g id="ProcessOnG1148" transform="matrix(1.0,0.0,0.0,1.0,208.73058063322242,506.0507161404882)" opacity="1.0"><path id="ProcessOnPath1149" d="M0.0 0.0L168.05231153125362 0.0L168.05231153125362 42.22226989021231L0.0 42.22226989021231Z" stroke="none" stroke-width="0.0" stroke-dasharray="none" opacity="1.0" fill="none"/><g id="ProcessOnG1150" transform="matrix(1.0,0.0,0.0,1.0,0.0,12.986134945106155)"><text id="ProcessOnText1151" fill="#cc00cc" font-size="13" x="83.02615576562681" y="13.325" font-family="微软雅黑" font-weight="bold" font-style="normal" text-decoration="none" family="微软雅黑" text-anchor="middle" size="13">Concat: axis=1</text></g></g><g id="ProcessOnG1152" transform="matrix(1.0,0.0,0.0,1.0,714.4171889103593,543.625847387103)" opacity="1.0"><path id="ProcessOnPath1153" d="M0.0 4.0Q0.0 0.0 4.0 0.0L243.29991892516455 0.0Q247.29991892516455 0.0 247.29991892516455 4.0L247.29991892516455 33.204074469585976Q247.29991892516455 37.204074469585976 243.29991892516455 37.204074469585976L4.0 37.204074469585976Q0.0 37.204074469585976 0.0 33.204074469585976Z" stroke="#323232" stroke-width="2.0" stroke-dasharray="none" opacity="1.0" fill="#ffffff"/><g id="ProcessOnG1154" transform="matrix(1.0,0.0,0.0,1.0,10.0,2.352037234792988)"><text id="ProcessOnText1155" fill="#000000" font-size="13" x="112.64995946258227" y="13.325" font-family="微软雅黑" font-weight="normal" font-style="normal" text-decoration="none" family="微软雅黑" text-anchor="middle" size="13">mbox_priorbox</text><text id="ProcessOnText1156" fill="#000000" font-size="13" x="112.64995946258227" y="29.575" font-family="微软雅黑" font-weight="normal" font-style="normal" text-decoration="none" family="微软雅黑" text-anchor="middle" size="13">N×2×(?)</text></g></g><g id="ProcessOnG1157"><path id="ProcessOnPath1158" d="M838.0671483729416 315.20163824634346L838.0671483729416 429.41374281672324L838.0671483729416 429.41374281672324L838.0671483729416 528.3897794096032" stroke="#323232" stroke-width="2.0" stroke-dasharray="none" fill="none" marker-end="url(#ProcessOnMarker1159)"/></g><g id="ProcessOnG1161" transform="matrix(1.0,0.0,0.0,1.0,831.7305806332226,490.0660091402972)" opacity="1.0"><path id="ProcessOnPath1162" d="M0.0 0.0L168.05231153125362 0.0L168.05231153125362 42.22226989021231L0.0 42.22226989021231Z" stroke="none" stroke-width="0.0" stroke-dasharray="none" opacity="1.0" fill="none"/><g id="ProcessOnG1163" transform="matrix(1.0,0.0,0.0,1.0,0.0,12.986134945106155)"><text id="ProcessOnText1164" fill="#ff3333" font-size="13" x="83.02615576562681" y="13.325" font-family="微软雅黑" font-weight="bold" font-style="normal" text-decoration="none" family="微软雅黑" text-anchor="middle" size="13">Another 5 priorbox inputs</text></g></g><g id="ProcessOnG1165" transform="matrix(1.0,0.0,0.0,1.0,815.0,506.05071614048825)" opacity="1.0"><path id="ProcessOnPath1166" d="M0.0 0.0L168.05231153125362 0.0L168.05231153125362 42.22226989021231L0.0 42.22226989021231Z" stroke="none" stroke-width="0.0" stroke-dasharray="none" opacity="1.0" fill="none"/><g id="ProcessOnG1167" transform="matrix(1.0,0.0,0.0,1.0,0.0,12.986134945106155)"><text id="ProcessOnText1168" fill="#cc00cc" font-size="13" x="83.02615576562681" y="13.325" font-family="微软雅黑" font-weight="bold" font-style="normal" text-decoration="none" family="微软雅黑" text-anchor="middle" size="13">Concat: axis=2</text></g></g><g id="ProcessOnG1169" transform="matrix(1.0,0.0,0.0,1.0,414.06776172966465,617.4847070001911)" opacity="1.0"><path id="ProcessOnPath1170" d="M0.0 4.0Q0.0 0.0 4.0 0.0L236.64969595469086 0.0Q240.64969595469086 0.0 240.64969595469086 4.0L240.64969595469086 34.85885961308804Q240.64969595469086 38.85885961308804 236.64969595469086 38.85885961308804L4.0 38.85885961308804Q0.0 38.85885961308804 0.0 34.85885961308804Z" stroke="#323232" stroke-width="2.0" stroke-dasharray="none" opacity="1.0" fill="#ffffff"/><g id="ProcessOnG1171" transform="matrix(1.0,0.0,0.0,1.0,10.0,3.1794298065440216)"><text id="ProcessOnText1172" fill="#000000" font-size="13" x="109.32484797734543" y="13.325" font-family="微软雅黑" font-weight="normal" font-style="normal" text-decoration="none" family="微软雅黑" text-anchor="middle" size="13">mbox_conf_reshape</text><text id="ProcessOnText1173" fill="#000000" font-size="13" x="109.32484797734543" y="29.575" font-family="微软雅黑" font-weight="normal" font-style="normal" text-decoration="none" family="微软雅黑" text-anchor="middle" size="13">N×(?)×21</text></g></g><g id="ProcessOnG1174"><path id="ProcessOnPath1175" d="M534.39260970701 580.829921856689L534.39260970701 599.15731442844L534.39260970701 599.15731442844L534.39260970701 602.2486390226912" stroke="#323232" stroke-width="2.0" stroke-dasharray="none" fill="none" marker-end="url(#ProcessOnMarker1176)"/></g><g id="ProcessOnG1178" transform="matrix(1.0,0.0,0.0,1.0,512.4738442343732,577.4847070001911)" opacity="1.0"><path id="ProcessOnPath1179" d="M0.0 0.0L160.0 0.0L160.0 40.0L0.0 40.0Z" stroke="none" stroke-width="0.0" stroke-dasharray="none" opacity="1.0" fill="none"/><g id="ProcessOnG1180" transform="matrix(1.0,0.0,0.0,1.0,0.0,11.875)"><text id="ProcessOnText1181" fill="#3333ff" font-size="13" x="79.0" y="13.325" font-family="微软雅黑" font-weight="bold" font-style="normal" text-decoration="none" family="微软雅黑" text-anchor="middle" size="13">Reshape: 0,-1,21</text></g></g><g id="ProcessOnG1182" transform="matrix(1.0,0.0,0.0,1.0,414.06776172966465,692.625847387103)" opacity="1.0"><path id="ProcessOnPath1183" d="M0.0 4.0Q0.0 0.0 4.0 0.0L236.64969595469086 0.0Q240.64969595469086 0.0 240.64969595469086 4.0L240.64969595469086 34.85885961308804Q240.64969595469086 38.85885961308804 236.64969595469086 38.85885961308804L4.0 38.85885961308804Q0.0 38.85885961308804 0.0 34.85885961308804Z" stroke="#323232" stroke-width="2.0" stroke-dasharray="none" opacity="1.0" fill="#ffffff"/><g id="ProcessOnG1184" transform="matrix(1.0,0.0,0.0,1.0,10.0,3.1794298065440216)"><text id="ProcessOnText1185" fill="#000000" font-size="13" x="109.32484797734543" y="13.325" font-family="微软雅黑" font-weight="normal" font-style="normal" text-decoration="none" family="微软雅黑" text-anchor="middle" size="13">mbox_conf_softmax</text><text id="ProcessOnText1186" fill="#000000" font-size="13" x="109.32484797734543" y="29.575" font-family="微软雅黑" font-weight="normal" font-style="normal" text-decoration="none" family="微软雅黑" text-anchor="middle" size="13">N×(?)×21</text></g></g><g id="ProcessOnG1187"><path id="ProcessOnPath1188" d="M534.39260970701 656.3435666132791L534.39260970701 674.4847070001911L534.39260970701 674.4847070001911L534.39260970701 677.3897794096032" stroke="#323232" stroke-width="2.0" stroke-dasharray="none" fill="none" marker-end="url(#ProcessOnMarker1189)"/></g><g id="ProcessOnG1191" transform="matrix(1.0,0.0,0.0,1.0,508.00638655001774,652.3435666132791)" opacity="1.0"><path id="ProcessOnPath1192" d="M0.0 0.0L160.0 0.0L160.0 40.0L0.0 40.0Z" stroke="none" stroke-width="0.0" stroke-dasharray="none" opacity="1.0" fill="none"/><g id="ProcessOnG1193" transform="matrix(1.0,0.0,0.0,1.0,0.0,11.875)"><text id="ProcessOnText1194" fill="#330066" font-size="13" x="79.0" y="13.325" font-family="微软雅黑" font-weight="bold" font-style="normal" text-decoration="none" family="微软雅黑" text-anchor="middle" size="13">Softmax: axis=2</text></g></g><g id="ProcessOnG1195" transform="matrix(1.0,0.0,0.0,1.0,414.06776172966465,772.625847387103)" opacity="1.0"><path id="ProcessOnPath1196" d="M0.0 4.0Q0.0 0.0 4.0 0.0L236.64969595469086 0.0Q240.64969595469086 0.0 240.64969595469086 4.0L240.64969595469086 34.85885961308804Q240.64969595469086 38.85885961308804 236.64969595469086 38.85885961308804L4.0 38.85885961308804Q0.0 38.85885961308804 0.0 34.85885961308804Z" stroke="#323232" stroke-width="2.0" stroke-dasharray="none" opacity="1.0" fill="#ffffff"/><g id="ProcessOnG1197" transform="matrix(1.0,0.0,0.0,1.0,10.0,3.1794298065440216)"><text id="ProcessOnText1198" fill="#000000" font-size="13" x="109.32484797734543" y="13.325" font-family="微软雅黑" font-weight="normal" font-style="normal" text-decoration="none" family="微软雅黑" text-anchor="middle" size="13">mbox_conf_flatten</text><text id="ProcessOnText1199" fill="#000000" font-size="13" x="109.32484797734543" y="29.575" font-family="微软雅黑" font-weight="normal" font-style="normal" text-decoration="none" family="微软雅黑" text-anchor="middle" size="13">N×(?)</text></g></g><g id="ProcessOnG1200"><path id="ProcessOnPath1201" d="M534.39260970701 731.4847070001911L534.39260970701 752.055277193647L534.39260970701 752.055277193647L534.39260970701 757.3897794096032" stroke="#323232" stroke-width="2.0" stroke-dasharray="none" fill="none" marker-end="url(#ProcessOnMarker1202)"/></g><g id="ProcessOnG1204" transform="matrix(1.0,0.0,0.0,1.0,504.4215327031196,730.4035774968906)" opacity="1.0"><path id="ProcessOnPath1205" d="M0.0 0.0L168.05231153125362 0.0L168.05231153125362 42.22226989021231L0.0 42.22226989021231Z" stroke="none" stroke-width="0.0" stroke-dasharray="none" opacity="1.0" fill="none"/><g id="ProcessOnG1206" transform="matrix(1.0,0.0,0.0,1.0,0.0,12.986134945106155)"><text id="ProcessOnText1207" fill="#663300" font-size="13" x="83.02615576562681" y="13.325" font-family="微软雅黑" font-weight="bold" font-style="normal" text-decoration="none" family="微软雅黑" text-anchor="middle" size="13">Flatten: axis=1</text></g></g><g id="ProcessOnG1208" transform="matrix(1.0,0.0,0.0,1.0,504.42153270311974,401.16122399679523)" opacity="1.0"><path id="ProcessOnPath1209" d="M0.0 0.0L168.05231153125362 0.0L168.05231153125362 42.22226989021231L0.0 42.22226989021231Z" stroke="none" stroke-width="0.0" stroke-dasharray="none" opacity="1.0" fill="none"/><g id="ProcessOnG1210" transform="matrix(1.0,0.0,0.0,1.0,0.0,12.986134945106155)"><text id="ProcessOnText1211" fill="#663300" font-size="13" x="83.02615576562681" y="13.325" font-family="微软雅黑" font-weight="bold" font-style="normal" text-decoration="none" family="微软雅黑" text-anchor="middle" size="13">Flatten: axis=1</text></g></g><g id="ProcessOnG1212"><path id="ProcessOnPath1213" d="M101.0 498.0L551.3914460822382 498.0L551.3914460822382 498.0L1001.7828921644763 498.0" stroke="#3333ff" stroke-width="2.0" stroke-dasharray="10.0 4.0 2.0 4.0" fill="none"/></g><g id="ProcessOnG1214" transform="matrix(1.0,0.0,0.0,1.0,103.46437429880842,626.4847070001911)" opacity="1.0"><path id="ProcessOnPath1215" d="M0.0 0.0L241.86398986155245 0.0L257.86398986155245 16.0L257.86398986155245 72.51529299980893L0.0 72.51529299980893L0.0 0.0Z" stroke="none" stroke-width="0.0" stroke-dasharray="none" opacity="1.0" fill="#ffffaa"/><path id="ProcessOnPath1216" d="M241.86398986155245 0.0L241.86398986155245 16.0L257.86398986155245 16.0Z" stroke="none" stroke-width="0.0" stroke-dasharray="none" opacity="1.0" fill="#cdcd78"/><path id="ProcessOnPath1217" d="M0.0 0.0L241.86398986155245 0.0L257.86398986155245 16.0L257.86398986155245 72.51529299980893L0.0 72.51529299980893L0.0 0.0Z" stroke="none" stroke-width="0.0" stroke-dasharray="none" opacity="1.0" fill="none"/><g id="ProcessOnG1218" transform="matrix(1.0,0.0,0.0,1.0,10.0,11.882646499904467)"><text id="ProcessOnText1219" fill="#000000" font-size="13" x="117.93199493077623" y="13.325" font-family="微软雅黑" font-weight="normal" font-style="normal" text-decoration="none" family="微软雅黑" text-anchor="middle" size="13">注: 虚线以上是基于conv4_3的检测流程, </text><text id="ProcessOnText1220" fill="#000000" font-size="13" x="117.93199493077623" y="29.575" font-family="微软雅黑" font-weight="normal" font-style="normal" text-decoration="none" family="微软雅黑" text-anchor="middle" size="13">虚线以下是整合各个检测器的loc, conf, </text><text id="ProcessOnText1221" fill="#000000" font-size="13" x="117.93199493077623" y="45.825" font-family="微软雅黑" font-weight="normal" font-style="normal" text-decoration="none" family="微软雅黑" text-anchor="middle" size="13">PriorBox</text></g></g><g id="ProcessOnG1222" transform="matrix(1.0,0.0,0.0,1.0,712.2757428281212,626.4847070001911)" opacity="1.0"><path id="ProcessOnPath1223" d="M0.0 0.0L235.5828110896407 0.0L251.5828110896407 16.0L251.5828110896407 108.37415261289698L0.0 108.37415261289698L0.0 0.0Z" stroke="none" stroke-width="0.0" stroke-dasharray="none" opacity="1.0" fill="#ffffaa"/><path id="ProcessOnPath1224" d="M235.5828110896407 0.0L235.5828110896407 16.0L251.5828110896407 16.0Z" stroke="none" stroke-width="0.0" stroke-dasharray="none" opacity="1.0" fill="#cdcd78"/><path id="ProcessOnPath1225" d="M0.0 0.0L235.5828110896407 0.0L251.5828110896407 16.0L251.5828110896407 108.37415261289698L0.0 108.37415261289698L0.0 0.0Z" stroke="none" stroke-width="0.0" stroke-dasharray="none" opacity="1.0" fill="none"/><g id="ProcessOnG1226" transform="matrix(1.0,0.0,0.0,1.0,10.0,5.437076306448489)"><text id="ProcessOnText1227" fill="#000000" font-size="13" x="0.0" y="13.325" font-family="微软雅黑" font-weight="normal" font-style="normal" text-decoration="none" family="微软雅黑" text-anchor="start" size="13">注: N×2×(H×W×4×4), 2表示两个cha</text><text id="ProcessOnText1228" fill="#000000" font-size="13" x="0.0" y="29.575" font-family="微软雅黑" font-weight="normal" font-style="normal" text-decoration="none" family="微软雅黑" text-anchor="start" size="13">nnels,</text><text id="ProcessOnText1229" fill="#000000" font-size="13" x="0.0" y="45.825" font-family="微软雅黑" font-weight="normal" font-style="normal" text-decoration="none" family="微软雅黑" text-anchor="start" size="13">第一个channel存两顶点坐标,</text><text id="ProcessOnText1230" fill="#000000" font-size="13" x="0.0" y="62.075" font-family="微软雅黑" font-weight="normal" font-style="normal" text-decoration="none" family="微软雅黑" text-anchor="start" size="13">第二个channel存坐标对应的variance,</text><text id="ProcessOnText1231" fill="#000000" font-size="13" x="0.0" y="78.325" font-family="微软雅黑" font-weight="normal" font-style="normal" text-decoration="none" family="微软雅黑" text-anchor="start" size="13">第一个4表示4个default boxes, </text><text id="ProcessOnText1232" fill="#000000" font-size="13" x="0.0" y="94.575" font-family="微软雅黑" font-weight="normal" font-style="normal" text-decoration="none" family="微软雅黑" text-anchor="start" size="13">第二个4表示一个box的两个顶点坐标</text></g></g></g></g></svg>